<svg xmlns="http://www.w3.org/2000/svg" version="1.1" width="100" height="100" viewBox="30 10 43.0 80.0">
 <path fill="white" d="m47.836 18.527c-9.3438 2.5117-17.824 8.1211-23.242 16.207-10.648 15.898-5.4062 35.48 11.766 43.926 8.7383 4.2969 18.93 4.9102 28.277 2.4023 4.4414-1.1914 6.25 5.5625 1.8086 6.7539-10.98 2.9414-22.91 2.1523-33.164-2.8867-20.977-10.316-27.504-34.66-14.492-54.082 10.883-16.25 34.195-25.992 52.766-16.859 25.047 12.316 20.934 47.598-9.625 56.473-11.797 3.4258-25.938-2.4961-28.887-14.594-3.0391-12.477 5.8555-23.613 17.664-26.777 11.93-3.1953 21.32 8.457 14.77 18.234-1.9453 2.9023-4.957 4.9453-8.3203 5.8477-4.4414 1.1914-6.25-5.5664-1.8086-6.7539 5.6094-1.5039 7.207-7.7891 2.4023-10.152-5.1719-2.543-12.891 2.5078-15.879 6.9727-7.7773 11.613 3.8008 24.375 18.121 20.504 23.363-6.3164 28.527-33.617 8.4766-43.48-6.3945-3.1523-13.789-3.5391-20.633-1.7344z" fill-rule="evenodd"/>
</svg>