<svg xmlns="http://www.w3.org/2000/svg"
    width="100"
    height="100"
    version="1.1" x="0px" y="0px" viewBox="0 0 100 100">
    <g fill="white">
        <path d="M5273.1,2400.1v-2c0-2.8-5-4-9.7-4s-9.7,1.3-9.7,4v2c0,1.8,0.7,3.6,2,4.9l5,4.9c0.3,0.3,0.4,0.6,0.4,1v6.4c0,0.4,0.2,0.7,0.6,0.8l2.9,0.9c0.5,0.1,1-0.2,1-0.8v-7.2c0-0.4,0.2-0.7,0.4-1l5.1-5C5272.4,2403.7,5273.1,2401.9,5273.1,2400.1z M5263.4,2400c-4.8,0-7.4-1.3-7.5-1.8v0c0.1-0.5,2.7-1.8,7.5-1.8c4.8,0,7.3,1.3,7.5,1.8C5270.7,2398.7,5268.2,2400,5263.4,2400z"/>
        <path d="M5268.4,2410.3c-0.6,0-1,0.4-1,1c0,0.6,0.4,1,1,1h4.3c0.6,0,1-0.4,1-1c0-0.6-0.4-1-1-1H5268.4z"/>
        <path d="M5272.7,2413.7h-4.3c-0.6,0-1,0.4-1,1c0,0.6,0.4,1,1,1h4.3c0.6,0,1-0.4,1-1C5273.7,2414.1,5273.3,2413.7,5272.7,2413.7z"/>
        <path d="M5272.7,2417h-4.3c-0.6,0-1,0.4-1,1c0,0.6,0.4,1,1,1h4.3c0.6,0,1-0.4,1-1C5273.7,2417.5,5273.3,2417,5272.7,2417z"/>
    </g>
    <g fill="white">
        <path d="M50,35.4c-6.5,0-12,4.4-13.9,10.3H6.7c-2.3,0-4.2,1.9-4.2,4.2c0,2.3,1.9,4.2,4.2,4.2h29.4c1.8,6,7.3,10.3,13.9,10.3c8,0,14.6-6.5,14.6-14.6C64.6,42,58,35.4,50,35.4z"/>
        <path d="M50,25.1c2.3,0,4.2-1.9,4.2-4.2V6.7c0-2.3-1.9-4.2-4.2-4.2s-4.2,1.9-4.2,4.2v14.2C45.8,23.2,47.7,25.1,50,25.1z"/>
        <path d="M26.4,32.4c0.8,0.8,1.9,1.2,3,1.2s2.2-0.4,3-1.2c1.7-1.7,1.7-4.3,0-6L26,20.1c-1.7-1.7-4.3-1.7-6,0c-1.7,1.7-1.7,4.3,0,6L26.4,32.4z"/>
        <path d="M26.4,67.6L20.1,74c-1.7,1.7-1.7,4.3,0,6c0.8,0.8,1.9,1.2,3,1.2s2.2-0.4,3-1.2l6.4-6.4c1.7-1.7,1.7-4.3,0-6C30.7,65.9,28.1,65.9,26.4,67.6z"/>
        <path d="M50,74.9c-2.3,0-4.2,1.9-4.2,4.2v14.2c0,2.3,1.9,4.2,4.2,4.2s4.2-1.9,4.2-4.2V79.1C54.2,76.8,52.3,74.9,50,74.9z"/>
        <path d="M73.6,67.6c-1.7-1.7-4.3-1.7-6,0c-1.7,1.7-1.7,4.3,0,6L74,80c0.8,0.8,1.9,1.2,3,1.2c1.1,0,2.2-0.4,3-1.2c1.7-1.7,1.7-4.3,0-6L73.6,67.6z"/>
        <path d="M93.3,45.8H79.1c-2.3,0-4.2,1.9-4.2,4.2c0,2.3,1.9,4.2,4.2,4.2h14.2c2.3,0,4.2-1.9,4.2-4.2C97.5,47.7,95.6,45.8,93.3,45.8z"/>
        <path d="M70.6,33.6c1.1,0,2.2-0.4,3-1.2l6.4-6.4c1.7-1.7,1.7-4.3,0-6c-1.7-1.7-4.3-1.7-6,0l-6.4,6.4c-1.7,1.7-1.7,4.3,0,6C68.4,33.2,69.5,33.6,70.6,33.6z"/>
    </g>
</svg>
