<?xml version="1.0"?>
<svg xmlns="http://www.w3.org/2000/svg" width="100" height="100" viewBox="2 2 20 20">
    <path fill="white" d="M 9 3 C 8.4626941 3.0170839 8.03125 3.4585444 8.03125 4 C 8.03125 4.5522847 8.4789653 5 9.03125 5 C 9.0514177 5 9.0738779 5.0011773 9.09375 5 C 9.6380454 4.9739739 10.1726 5.0164104 10.6875 5.0625 C 10.2645 5.1995 10 5.578 10 6 C 10 6.102 10.0295 6.2095 10.0625 6.3125 C 10.2335 6.8375 10.7875 7.1075 11.3125 6.9375 C 12.542525 6.5390205 13.490304 6.3692078 14.25 6.3125 C 14.115028 6.6943449 14.029996 7.0964283 14.03125 7.5 C 14.03125 8.666 12.686 8.18725 11 8.03125 C 10.69 8.00225 9.347 8.03075 9 8.09375 C 6.957 8.46475 5.03125 10.89 5.03125 15 C 5.03125 15.02399 5.0290621 15.041821 5.03125 15.0625 C 4.876931 15.008858 4.703839 15 4.53125 15 C 3.7028229 15 3.03125 15.671572 3.03125 16.5 C 3.03125 17.328427 3.7028229 18 4.53125 18 C 5.2902206 18 5.900145 17.419059 6 16.6875 C 6.119 17.0525 6.833 17 7 17 L 9 17 C 9.69 17 8.517 17.62375 8.125 18.46875 C 7.742 19.16375 8.2695 20 9.0625 20 C 15.3225 19.969 14.958 22 16 22 C 16.979 22.125 17 21.417 17 21 C 17 20.542 16.156 19.606 15 19 C 14.125 18.542 13.515 18.246 12 18 C 12.933 17.577 14.1475 16.965 14.6875 16.125 C 14.9795 15.605 15 15.15 15 15 C 15 13.896 14.104 13 13 13 C 12.222 13 11.498 13.322 11 14 C 11 14 11.615 12.041 13 12 C 15.157 12 16 13.046 16 15 C 16 15.936 15.641 16.921 15 18 C 15.875 17.354 16.4365 16.632 16.9375 16 C 17.5895 15.177 17.844 14.031 18 12 C 18.020075 11.740094 18.014162 11.346509 18.03125 10.96875 C 18.688003 10.943971 19.33114 10.875635 19.90625 10.78125 C 21.71925 10.48525 22.5865 8.4 21.5625 6.875 C 21.1585 6.273 20.632 5.633 20 5 C 19.236 4.236 18.49075 4 17.21875 4 C 16.771336 4 16.343945 4.1249989 15.9375 4.34375 C 15.91631 4.3408543 15.896722 4.3464809 15.875 4.34375 C 14.324679 3.6777394 11.841059 2.8641517 9 3 z M 4 6 L 3 8 L 5.5 8 C 6.407 6.554 7.564 6.048 8 6 L 4 6 z M 19.03125 6 C 19.58325 6 20.03125 6.448 20.03125 7 C 20.03125 7.552 19.58325 8 19.03125 8 C 18.47925 8 18.03125 7.552 18.03125 7 C 18.03125 6.448 18.47925 6 19.03125 6 z M 2.65625 9 L 2 11 L 4.46875 11 C 4.57175 10.22 4.81725 9.564 5.03125 9 L 2.65625 9 z"/>
</svg>
