<?xml version="1.0" encoding="UTF-8" standalone="no"?>
<svg
   width="100"
   height="100"
   version="1.1"
   id="Layer_1"
   x="0px"
   y="0px"
   viewBox="0 0 120.64 122.88"
   style="enable-background:new 0 0 120.64 122.88"
   xml:space="preserve"
   sodipodi:docname="double-arrow-leftt-icon.svg"
   inkscape:version="1.2.2 (732a01da63, 2022-12-09)"
   xmlns:inkscape="http://www.inkscape.org/namespaces/inkscape"
   xmlns:sodipodi="http://sodipodi.sourceforge.net/DTD/sodipodi-0.dtd"
   xmlns="http://www.w3.org/2000/svg"
   xmlns:svg="http://www.w3.org/2000/svg"><defs
     id="defs1725" /><sodipodi:namedview
     id="namedview1723"
     pagecolor="#ffffff"
     bordercolor="#000000"
     borderopacity="0.25"
     inkscape:showpageshadow="2"
     inkscape:pageopacity="0.0"
     inkscape:pagecheckerboard="0"
     inkscape:deskcolor="#d1d1d1"
     showgrid="false"
     inkscape:zoom="3.5685222"
     inkscape:cx="28.58326"
     inkscape:cy="63.891994"
     inkscape:window-width="1920"
     inkscape:window-height="1057"
     inkscape:window-x="-8"
     inkscape:window-y="-8"
     inkscape:window-maximized="1"
     inkscape:current-layer="Layer_1" /><g
     id="g1720"
     transform="matrix(-1,0,0,1,120.61999,0)"><path fill="white"
       d="m 54.03,108.91 c -1.55,1.63 -2.31,3.74 -2.28,5.85 0.03,2.11 0.84,4.2 2.44,5.79 l 0.12,0.12 c 1.58,1.5 3.6,2.23 5.61,2.2 2.01,-0.03 4.01,-0.82 5.55,-2.37 17.66,-17.66 35.13,-35.61 52.68,-53.4 0.07,-0.05 0.13,-0.1 0.19,-0.16 1.55,-1.63 2.31,-3.76 2.28,-5.87 -0.03,-2.11 -0.85,-4.21 -2.45,-5.8 L 117.9,55.01 C 100.43,37.47 82.98,19.87 65.46,2.36 63.93,0.82 61.93,0.03 59.92,0 57.91,-0.03 55.89,0.7 54.31,2.21 l -0.15,0.15 c -1.57,1.58 -2.38,3.66 -2.41,5.76 -0.03,2.1 0.73,4.22 2.28,5.85 l 47.22,47.27 -47.22,47.67 z m -51.77,-2 c -1.54,1.62 -2.29,3.73 -2.26,5.83 0.03,2.11 0.84,4.2 2.44,5.79 l 0.12,0.12 c 1.57,1.5 3.6,2.23 5.61,2.21 2.01,-0.03 4.02,-0.82 5.55,-2.37 17.29,-17.29 35.15,-34.29 52.67,-51.37 0.07,-0.05 0.14,-0.11 0.21,-0.17 1.55,-1.63 2.31,-3.76 2.28,-5.87 -0.03,-2.11 -0.85,-4.21 -2.45,-5.8 C 48.94,38.33 31.36,21.44 13.83,4.51 L 13.71,4.38 C 12.18,2.84 10.18,2.06 8.17,2.03 6.16,2 4.14,2.73 2.56,4.23 L 2.41,4.38 C 0.84,5.96 0.03,8.05 0,10.14 c -0.03,2.1 0.73,4.22 2.28,5.85 l 47.18,45.24 -47.2,45.68 z"
       id="path1718" /></g></svg>
