<?xml version="1.0"?>
<svg xmlns="http://www.w3.org/2000/svg" width="100" height="100" viewBox="0 0 50 50">
    <path fill="white" d="M 39.90625 2 C 37.56125 2 36.41875 5.55875 37.46875 11.46875 C 37.89375 11.34675 38.3485 11.2455 38.8125 11.1875 C 37.8735 4.0905 41.461 7.14775 42 4.09375 C 42.2 2.89375 41.20625 2 39.90625 2 z M 47.5625 4.03125 C 45.719395 4.2048425 43.752687 6.7181875 42.28125 11.34375 C 42.76625 11.44875 43.2335 11.583 43.6875 11.75 C 46.1015 5.158 47.8105 9.59575 49.6875 7.09375 C 50.3875 6.19375 49.9125 4.9125 48.8125 4.3125 C 48.406188 4.101375 47.987832 3.9911902 47.5625 4.03125 z M 40 13.09375 C 35.19 13.09375 33 17.2865 33 21.1875 C 33 21.8385 32.9805 22.597 32.9375 23.375 C 33.7125 25.305 34.083 27.36475 34 29.46875 C 34 29.48075 34 29.488 34 29.5 C 34 29.509 34 29.52325 34 29.53125 C 33.999 29.54525 34.001 29.5485 34 29.5625 L 34 29.59375 L 34 29.65625 L 34 29.71875 C 33.658 33.25875 31.51825 35.92125 29.78125 37.53125 C 29.53825 37.75725 29.26 37.95725 29 38.15625 C 28.889 38.24225 28.76925 38.32525 28.65625 38.40625 C 28.64725 38.41225 28.66425 38.4315 28.65625 38.4375 C 28.51725 38.5355 28.36175 38.62775 28.21875 38.71875 C 28.06675 38.81475 27.906 38.912 27.75 39 C 27.197 39.311 26.61 39.57025 26 39.78125 C 25.965 39.79325 25.94125 39.8005 25.90625 39.8125 C 25.16725 40.0595 24.3825 40.24275 23.5625 40.34375 C 23.4355 40.36075 23.28525 40.362 23.15625 40.375 C 23.07925 40.382 23.0155 40.40125 22.9375 40.40625 L 20.875 40.5625 L 20.875 40.4375 C 20.236 40.9535 19.657 41.308 19.25 41.5 C 19.063 41.594 18.841 41.67 18.625 41.75 C 18.516 41.792 18.4275 41.836 18.3125 41.875 C 17.2005 42.268 16.26475 42.366 16.21875 42.375 C 16.19675 42.379 16.17825 42.40225 16.15625 42.40625 C 16.14725 42.40825 16.133 42.40525 16.125 42.40625 C 15.861 42.45325 15.5865 42.49125 15.3125 42.53125 C 15.2715 42.53725 15.2285 42.5565 15.1875 42.5625 C 13.8335 42.7535 12.392 42.88075 11 42.96875 L 10.9375 42.96875 L 10.875 42.96875 L 10.8125 42.96875 C 10.7375 42.96875 10.60475 42.97175 10.46875 42.96875 C 10.41075 42.96775 10.34825 42.9395 10.28125 42.9375 C 10.11125 42.9315 9.9145 42.91925 9.6875 42.90625 C 9.6665 42.90425 9.61475 42.90825 9.59375 42.90625 C 9.12375 42.87625 8.55525 42.838 7.90625 42.75 L 7.84375 42.71875 C 7.46575 42.66575 7.07725 42.61125 6.65625 42.53125 L 6.09375 42.4375 L 6.09375 42.40625 C 5.09675 42.18925 4.0125 41.89275 2.9375 41.46875 C 0.9415 41.73175 2.9605947e-16 42.2195 0 43.3125 C 0 47.8805 20.8135 48 23.1875 48 C 43.3115 48 43.978 33.11075 44 26.71875 C 46.384 25.38075 48 22.8345 48 20.3125 C 48 16.3425 44.411 13.09375 40 13.09375 z M 17 15 C 12.804 15 8.75325 16.67175 5.90625 19.59375 C 3.28325 22.28475 1.903 25.80825 2 29.53125 C 2.163 33.85725 4.02725 37.8275 7.03125 40.5625 C 9.18125 40.9705 10.81675 40.96875 10.84375 40.96875 C 13.48375 40.79975 16.76875 40.50575 18.34375 39.71875 C 19.56575 39.14375 23 36.51675 23 32.09375 C 23 26.47775 18.80775 25 16.59375 25 C 14.10675 25 13 26.507 13 28 C 13 29.286 13.7585 31.1875 15.8125 31.1875 C 16.3645 31.1875 16.8125 31.6355 16.8125 32.1875 C 16.8125 32.7395 16.3645 33.1875 15.8125 33.1875 C 12.6945 33.1875 11 30.52 11 28 C 11 25.516 12.91775 23 16.59375 23 C 19.96975 23 25 25.41675 25 32.09375 C 25 36.72475 23.96925 37.28175 22.78125 38.34375 C 22.78125 38.36775 22.78025 38.38225 22.78125 38.40625 C 25.01125 38.23625 26.90425 37.4545 28.40625 36.0625 C 30.21325 34.3875 31.751 32.113 32 29.5 C 32.375 21.594 25.411 15 17 15 z"/>
</svg>
